<?xml version="1.0" standalone="no"?>
<!DOCTYPE svg PUBLIC "-//W3C//DTD SVG 20010904//EN"
 "http://www.w3.org/TR/2001/REC-SVG-20010904/DTD/svg10.dtd">
<svg version="1.0" xmlns="http://www.w3.org/2000/svg"
 width="512.000000pt" height="512.000000pt" viewBox="0 0 512.000000 512.000000"
 preserveAspectRatio="xMidYMid meet">

<g transform="translate(0.000000,512.000000) scale(0.100000,-0.100000)"
fill="#000000" stroke="none">
<path d="M1242 3807 l-1242 -1242 1243 -1242 c683 -683 1246 -1246 1250 -1250
4 -4 129 114 277 262 l270 270 -977 977 -978 978 978 978 977 977 -268 268
c-147 147 -272 267 -277 267 -6 0 -569 -559 -1253 -1243z"/>
<path d="M3330 3805 l-1245 -1245 1247 -1247 1248 -1248 270 270 270 270 -977
977 -978 978 978 978 977 977 -268 268 c-147 147 -269 267 -272 267 -3 0 -565
-560 -1250 -1245z"/>
</g>
</svg>
