<?xml version="1.0" standalone="no"?>
<!DOCTYPE svg PUBLIC "-//W3C//DTD SVG 20010904//EN"
 "http://www.w3.org/TR/2001/REC-SVG-20010904/DTD/svg10.dtd">
<svg version="1.0" xmlns="http://www.w3.org/2000/svg"
 width="512.000000pt" height="512.000000pt" viewBox="0 0 512.000000 512.000000"
 preserveAspectRatio="xMidYMid meet">

<g transform="translate(0.000000,512.000000) scale(0.100000,-0.100000)"
fill="#000000" stroke="none">
<path d="M267 4783 l-267 -268 977 -977 978 -978 -978 -978 -977 -977 270
-270 270 -270 1248 1248 1247 1247 -1245 1245 c-685 685 -1247 1245 -1250
1245 -3 0 -125 -120 -273 -267z"/>
<path d="M2347 4783 l-267 -268 977 -977 978 -978 -978 -978 -977 -977 270
-270 c148 -148 273 -266 277 -262 4 4 567 567 1250 1250 l1243 1242 -1242
1242 c-684 684 -1247 1243 -1253 1243 -6 0 -130 -120 -278 -267z"/>
</g>
</svg>
